# xmcd
#
# Track frame offsets: 
#        150
#        12847
#        26865
#        39092
#        56695
#        69867
#        85330
#        102237
#        109832
#        127880
#        138155
#        155890
#
# Disc length: 2228 seconds
#
# Revision: 5
# Processed by: cddbd v1.5.2PL0 Copyright (c) Steve Scherf et al.
# Submitted via: ExactAudioCopy v0.99pb5
#
DISCID=9608b20c
DTITLE=Silkworm - Lifestyle
DYEAR=2000
DGENRE=Indie
TTITLE0=Contempt
TTITLE1=Slave Wages
TTITLE2=Treat The New Guy Right
TTITLE3=Plain
TTITLE4=Roots
TTITLE5=Yr Web
TTITLE6=That's Entertainment
TTITLE7=Raging Bull
TTITLE8=Around The Outline
TTITLE9=Dead Air
TTITLE10=OOH LA LA
TTITLE11=The Bones
EXTD=YEAR: 2000 ID3G:  17
EXTT0=
EXTT1=
EXTT2=
EXTT3=
EXTT4=
EXTT5=
EXTT6=
EXTT7=
EXTT8=
EXTT9=
EXTT10=
EXTT11=
PLAYORDER=
